<svg width="27" height="27" viewBox="0 0 27 27" fill="none" xmlns="http://www.w3.org/2000/svg">
<path d="M19.4641 4.22347C19.3139 4.22347 18.247 4.43391 9.49896 6.07247C9.43061 6.07247 9.10354 6.15794 8.92382 6.30813C8.74748 6.44988 8.65355 6.63909 8.61895 6.86184C8.47299 7.44487 8.93809 17.9558 8.50525 18.4486C8.31625 18.6587 7.98311 18.7194 7.72577 18.7666C6.18677 19.0366 5.16216 19.178 4.43316 19.8724C3.17682 21.0984 3.82779 23.2376 5.68066 23.5852C6.37507 23.7135 7.67921 23.5394 8.39978 23.1403C9.03428 22.8138 9.51535 22.2267 9.69506 21.4462C9.84947 20.7771 9.80218 21.2396 9.80218 11.1745C9.80218 10.6809 9.94025 10.5522 10.3773 10.4577C10.3773 10.4577 17.9884 9.03442 18.3402 8.97451C18.833 8.88845 19.0686 9.02176 19.0686 9.50185C19.0686 16.3253 19.155 16.1919 18.8807 16.5007C18.6917 16.7108 18.4674 16.7699 18.21 16.8171C16.6702 17.0871 15.7403 17.1345 15.0113 17.8289C14.0891 18.7292 14.1015 20.1571 15.1267 21.0194C15.8903 21.6016 16.7476 21.7449 17.798 21.5517C18.9945 21.3281 19.887 20.6671 20.1612 19.4917C20.2852 18.9559 20.2454 19.7489 20.2403 4.97823C20.2403 4.48042 19.9569 4.18888 19.4641 4.22347Z" fill="black"/>
</svg>
